STARTFONT 2.1
FONT big5.5e00.16
SIZE 16 72 72
FONTBOUNDINGBOX 16 16 0 -2
STARTPROPERTIES 4
FONT_DESCENT 2
FONT_ASCENT 14
DEFAULT_CHAR 2
COPYRIGHT "Copyright (c) 1992 AT&T - All rights reserved."
ENDPROPERTIES
CHARS 329
STARTCHAR ch-2
ENCODING 2
SWIDTH 1000 0
DWIDTH 16 0
BBX 16 16 0 -2
BITMAP
0100
0080
0002
7fff
0080
0084
1ffe
1084
1084
1084
1094
1088
0080
0080
0000
0000
ENDCHAR
STARTCHAR ch-3
ENCODING 3
SWIDTH 1000 0
DWIDTH 16 0
BBX 16 16 0 -2
BITMAP
0100
0104
7ffe
0200
0480
0884
1ffe
2884
4884
0884
0894
0888
0080
0080
0000
0000
ENDCHAR
STARTCHAR ch-4
ENCODING 4
SWIDTH 1000 0
DWIDTH 16 0
BBX 16 16 0 -2
BITMAP
0800
0802
08ff
7f08
4908
4908
4908
4908
4908
4b08
0808
0808
0828
0810
0000
0000
ENDCHAR
STARTCHAR ch-6
ENCODING 6
SWIDTH 1000 0
DWIDTH 16 0
BBX 16 16 0 -2
BITMAP
1004
107e
7c44
5444
5464
5454
5454
5444
5c44
5444
1085
1085
1105
1203
0000
0000
ENDCHAR
STARTCHAR ch-10
ENCODING 10
SWIDTH 1000 0
DWIDTH 16 0
BBX 16 16 0 -2
BITMAP
0800
0800
087f
7f49
4949
4949
497f
4940
4b40
0840
0840
0841
0841
087f
0000
0000
ENDCHAR
STARTCHAR ch-12
ENCODING 12
SWIDTH 1000 0
DWIDTH 16 0
BBX 16 16 0 -2
BITMAP
0720
00c0
0338
1d04
0100
7fff
0240
0444
0ffe
1444
6444
0454
0448
0040
0000
0000
ENDCHAR
STARTCHAR ch-14
ENCODING 14
SWIDTH 1000 0
DWIDTH 16 0
BBX 16 16 0 -2
BITMAP
0810
0810
087f
7f51
4951
4914
4914
4b14
0814
0824
0825
0845
0885
0907
0000
0000
ENDCHAR
STARTCHAR ch-17
ENCODING 17
SWIDTH 1000 0
DWIDTH 16 0
BBX 16 16 0 -2
BITMAP
0402
7f7f
0922
1914
0608
0914
70a3
0080
1ffc
1084
1084
1094
1088
0080
0000
0000
ENDCHAR
STARTCHAR ch-20
ENCODING 20
SWIDTH 1000 0
DWIDTH 16 0
BBX 16 16 0 -2
BITMAP
1010
1010
7cff
5491
5492
5490
54fc
5484
54a4
5ca8
1110
1128
1247
1182
0000
0000
ENDCHAR
STARTCHAR ch-21
ENCODING 21
SWIDTH 1000 0
DWIDTH 16 0
BBX 16 16 0 -2
BITMAP
1020
1020
1042
7cff
5482
5482
5482
54fe
5482
5482
5c82
1082
10fe
1082
0000
0000
ENDCHAR
STARTCHAR ch-22
ENCODING 22
SWIDTH 1000 0
DWIDTH 16 0
BBX 16 16 0 -2
BITMAP
1020
1020
1022
7c3f
5420
5420
5424
55fe
5504
5504
5d04
1104
11fc
1104
0000
0000
ENDCHAR
STARTCHAR ch-23
ENCODING 23
SWIDTH 1000 0
DWIDTH 16 0
BBX 16 16 0 -2
BITMAP
1022
1021
7dff
5420
5420
5442
5442
5c84
10a8
1110
1228
1044
1082
1101
0000
0000
ENDCHAR
STARTCHAR ch-24
ENCODING 24
SWIDTH 1000 0
DWIDTH 16 0
BBX 16 16 0 -2
BITMAP
0100
0080
3fff
2221
4222
0c9c
0080
1ffc
1084
1084
1094
0088
0080
0080
0000
0000
ENDCHAR
STARTCHAR ch-25
ENCODING 25
SWIDTH 1000 0
DWIDTH 16 0
BBX 16 16 0 -2
BITMAP
1010
1090
7c92
54ff
5490
5510
5412
55ff
5410
5c28
5428
1044
1082
1301
0000
0000
ENDCHAR
STARTCHAR ch-26
ENCODING 26
SWIDTH 1000 0
DWIDTH 16 0
BBX 16 16 0 -2
BITMAP
1ffc
0004
7fff
0004
1ffc
0000
7fff
4081
5ffd
1084
1084
109c
0080
0080
0000
0000
ENDCHAR
STARTCHAR ch-27
ENCODING 27
SWIDTH 1000 0
DWIDTH 16 0
BBX 16 16 0 -2
BITMAP
0100
0208
0ffc
0808
0ff8
0808
0ff8
0084
1ffe
1084
1084
1094
1088
0080
0000
0000
ENDCHAR
STARTCHAR ch-29
ENCODING 29
SWIDTH 1000 0
DWIDTH 16 0
BBX 16 16 0 -2
BITMAP
0100
1ffc
0410
0220
3fff
2081
4082
0ff8
0888
0888
08a8
0890
0080
0080
0000
0000
ENDCHAR
STARTCHAR ch-31
ENCODING 31
SWIDTH 1000 0
DWIDTH 16 0
BBX 16 16 0 -2
BITMAP
0080
7fff
0220
0a28
1224
6463
0080
0080
3ffe
2082
208a
2084
0080
0080
0000
0000
ENDCHAR
STARTCHAR ch-32
ENCODING 32
SWIDTH 1000 0
DWIDTH 16 0
BBX 16 16 0 -2
BITMAP
0400
087c
1004
1f7c
1004
1ffc
0080
0080
3ffe
2082
2082
208a
2084
0080
0000
0000
ENDCHAR
STARTCHAR ch-33
ENCODING 33
SWIDTH 1000 0
DWIDTH 16 0
BBX 16 16 0 -2
BITMAP
1044
1044
1028
7cfe
5444
5444
55ff
5c44
1044
1044
1044
1084
1104
1004
0000
0000
ENDCHAR
STARTCHAR ch-34
ENCODING 34
SWIDTH 1000 0
DWIDTH 16 0
BBX 16 16 0 -2
BITMAP
0808
0814
0822
7f41
4900
493e
4900
4900
4b7f
0841
0841
0841
087f
0841
0000
0000
ENDCHAR
STARTCHAR ch-35
ENCODING 35
SWIDTH 1000 0
DWIDTH 16 0
BBX 16 16 0 -2
BITMAP
1044
0888
3ffe
0200
7fff
0804
1082
2081
1ffc
1084
1084
108c
0080
0080
0000
0000
ENDCHAR
STARTCHAR ch-36
ENCODING 36
SWIDTH 1000 0
DWIDTH 16 0
BBX 16 16 0 -2
BITMAP
2000
223f
7f21
1421
0821
143f
2321
4080
0080
3ffe
2082
208a
2084
0080
0000
0000
ENDCHAR
STARTCHAR ch-37
ENCODING 37
SWIDTH 1000 0
DWIDTH 16 0
BBX 16 16 0 -2
BITMAP
0808
1008
2008
7f7f
2249
2249
3e49
2049
3f49
224b
2208
3f08
2008
2008
0000
0000
ENDCHAR
STARTCHAR ch-40
ENCODING 40
SWIDTH 1000 0
DWIDTH 16 0
BBX 16 16 0 -2
BITMAP
1044
1082
1101
7cfe
5482
5482
5482
54fe
5428
5c28
1028
1048
1089
110f
0000
0000
ENDCHAR
STARTCHAR ch-41
ENCODING 41
SWIDTH 1000 0
DWIDTH 16 0
BBX 16 16 0 -2
BITMAP
1010
1111
1092
7c10
54fe
5482
54fe
5482
5cfe
1082
1082
1082
108a
1104
0000
0000
ENDCHAR
STARTCHAR ch-43
ENCODING 43
SWIDTH 1000 0
DWIDTH 16 0
BBX 16 16 0 -2
BITMAP
1000
21ff
4410
7c10
45ff
4511
7d11
4111
7d11
4511
4515
4412
7c10
4010
0000
0000
ENDCHAR
STARTCHAR ch-45
ENCODING 45
SWIDTH 1000 0
DWIDTH 16 0
BBX 16 16 0 -2
BITMAP
0040
1fff
1110
1112
1fff
1110
1110
11f0
1040
17fe
2442
244a
4444
0040
0000
0000
ENDCHAR
STARTCHAR ch-51
ENCODING 51
SWIDTH 1000 0
DWIDTH 16 0
BBX 16 16 0 -2
BITMAP
1000
10fe
1080
7cfe
5480
54fe
5480
55ff
5482
1094
1088
10a4
10c2
1181
0000
0000
ENDCHAR
STARTCHAR ch-52
ENCODING 52
SWIDTH 1000 0
DWIDTH 16 0
BBX 16 16 0 -2
BITMAP
1048
11fe
7c40
5428
5411
55ef
5440
5442
5dff
1040
1028
1011
1029
11c7
0000
0000
ENDCHAR
STARTCHAR ch-54
ENCODING 54
SWIDTH 1000 0
DWIDTH 16 0
BBX 16 16 0 -2
BITMAP
1224
1224
7fff
1224
23e7
0000
7fff
4081
5ffd
1084
1084
109c
0080
0080
0000
0000
ENDCHAR
STARTCHAR ch-55
ENCODING 55
SWIDTH 1000 0
DWIDTH 16 0
BBX 16 16 0 -2
BITMAP
1040
1050
1088
7dff
5688
5488
54fe
5488
5488
5cfe
1088
1088
10ff
1080
0000
0000
ENDCHAR
STARTCHAR ch-56
ENCODING 56
SWIDTH 1000 0
DWIDTH 16 0
BBX 16 16 0 -2
BITMAP
0888
0490
7fff
4001
4ffa
0808
0ff8
0080
3ffe
2082
2082
208a
2084
0080
0000
0000
ENDCHAR
STARTCHAR ch-61
ENCODING 61
SWIDTH 1000 0
DWIDTH 16 0
BBX 16 16 0 -2
BITMAP
11ff
1102
7d7a
5502
557a
5400
54fc
5484
54fc
5c84
10fc
1084
10fc
1084
0000
0000
ENDCHAR
STARTCHAR ch-62
ENCODING 62
SWIDTH 1000 0
DWIDTH 16 0
BBX 16 16 0 -2
BITMAP
1010
1011
10ff
7c12
5414
55ff
5410
547e
54c2
5d7e
1242
1042
107e
1042
0000
0000
ENDCHAR
STARTCHAR ch-64
ENCODING 64
SWIDTH 1000 0
DWIDTH 16 0
BBX 16 16 0 -2
BITMAP
1010
101e
7c10
54fe
5482
5482
54fe
5482
5cfe
1082
10fe
1044
1082
1101
0000
0000
ENDCHAR
STARTCHAR ch-65
ENCODING 65
SWIDTH 1000 0
DWIDTH 16 0
BBX 16 16 0 -2
BITMAP
087f
0808
0810
7f7f
4941
4941
497f
4941
497f
4b41
0841
087f
0822
0841
0000
0000
ENDCHAR
STARTCHAR ch-67
ENCODING 67
SWIDTH 1000 0
DWIDTH 16 0
BBX 16 16 0 -2
BITMAP
1020
10fe
1022
7dff
5400
54fe
5482
54fe
5410
10fe
1090
11ff
1010
1010
0000
0000
ENDCHAR
STARTCHAR ch-68
ENCODING 68
SWIDTH 1000 0
DWIDTH 16 0
BBX 16 16 0 -2
BITMAP
10fe
1082
7cfe
5480
54fe
5490
54a4
54fe
5492
5c90
54fc
1110
1210
14ff
0000
0000
ENDCHAR
STARTCHAR ch-69
ENCODING 69
SWIDTH 1000 0
DWIDTH 16 0
BBX 16 16 0 -2
BITMAP
1002
11ff
7c00
54fe
5482
54fe
55ff
5511
5511
5dff
1111
1111
11ff
1101
0000
0000
ENDCHAR
STARTCHAR ch-74
ENCODING 74
SWIDTH 1000 0
DWIDTH 16 0
BBX 16 16 0 -2
BITMAP
10fe
1010
1010
7cfe
5400
54fe
5482
54fe
5c82
10fe
1082
10fe
1044
1082
0000
0000
ENDCHAR
STARTCHAR ch-75
ENCODING 75
SWIDTH 1000 0
DWIDTH 16 0
BBX 16 16 0 -2
BITMAP
103c
7f24
2925
2547
7fbe
2914
2508
4177
0080
3ffe
2082
208a
2084
0080
0000
0000
ENDCHAR
STARTCHAR ch-76
ENCODING 76
SWIDTH 1000 0
DWIDTH 16 0
BBX 16 16 0 -2
BITMAP
11fc
1104
7dfc
5504
55fc
5420
5524
54ac
5430
57fe
5c50
1091
1111
160f
0000
0000
ENDCHAR
STARTCHAR ch-77
ENCODING 77
SWIDTH 1000 0
DWIDTH 16 0
BBX 16 16 0 -2
BITMAP
11fe
1054
7c92
5511
5400
5440
5487
5501
5501
5dc7
1101
1101
11ff
1000
0000
0000
ENDCHAR
STARTCHAR ch-78
ENCODING 78
SWIDTH 1000 0
DWIDTH 16 0
BBX 16 16 0 -2
BITMAP
11ff
1101
117d
7c44
547c
5444
547c
5410
5c10
11ff
1000
1044
1082
1101
0000
0000
ENDCHAR
STARTCHAR ch-79
ENCODING 79
SWIDTH 1000 0
DWIDTH 16 0
BBX 16 16 0 -2
BITMAP
1010
13ff
1201
7efa
5420
5450
55b3
5454
5898
1334
1052
1391
1050
1020
0000
0000
ENDCHAR
STARTCHAR ch-83
ENCODING 83
SWIDTH 1000 0
DWIDTH 16 0
BBX 16 16 0 -2
BITMAP
1084
11fe
1044
7ca9
55ff
5444
5492
5525
5448
1092
1024
1048
1010
11e0
0000
0000
ENDCHAR
STARTCHAR ch-84
ENCODING 84
SWIDTH 1000 0
DWIDTH 16 0
BBX 16 16 0 -2
BITMAP
10fc
1084
10fc
7c84
54fc
55fe
554a
55fe
55fc
5c88
1050
1020
10d8
1707
0000
0000
ENDCHAR
STARTCHAR ch-85
ENCODING 85
SWIDTH 1000 0
DWIDTH 16 0
BBX 16 16 0 -2
BITMAP
0220
3ffe
0ff8
0808
0ff8
0808
0ff8
7fff
0888
1ffc
688b
08a8
0890
0080
0000
0000
ENDCHAR
STARTCHAR ch-87
ENCODING 87
SWIDTH 1000 0
DWIDTH 16 0
BBX 16 16 0 -2
BITMAP
13ff
120d
7e0b
57ff
5609
56e9
56a9
56a9
5eeb
120d
12e9
1215
1203
13ff
0000
0000
ENDCHAR
STARTCHAR ch-88
ENCODING 88
SWIDTH 1000 0
DWIDTH 16 0
BBX 16 16 0 -2
BITMAP
1010
10fe
1010
7cfe
5410
55ff
54fe
5482
5cfa
10fa
1082
10fe
1044
1183
0000
0000
ENDCHAR
STARTCHAR ch-89
ENCODING 89
SWIDTH 1000 0
DWIDTH 16 0
BBX 16 16 0 -2
BITMAP
1044
11ff
1044
7c00
54fe
5482
54fe
5482
54fe
5410
11ff
1028
1044
1183
0000
0000
ENDCHAR
STARTCHAR ch-91
ENCODING 91
SWIDTH 1000 0
DWIDTH 16 0
BBX 16 16 0 -2
BITMAP
1010
10fe
1044
7c28
55ff
54fe
5482
54fe
5482
5cfe
5410
11ff
1010
1010
0000
0000
ENDCHAR
STARTCHAR ch-92
ENCODING 92
SWIDTH 1000 0
DWIDTH 16 0
BBX 16 16 0 -2
BITMAP
10fe
1082
10fe
7c82
54fe
5410
55ff
5400
54fe
1082
10fe
1038
1054
1092
0000
0000
ENDCHAR
STARTCHAR ch-93
ENCODING 93
SWIDTH 1000 0
DWIDTH 16 0
BBX 16 16 0 -2
BITMAP
11ef
1129
11ef
7c00
54fe
5492
54fe
5492
54fe
1010
11ff
1010
1010
1010
0000
0000
ENDCHAR
STARTCHAR ch-95
ENCODING 95
SWIDTH 1000 0
DWIDTH 16 0
BBX 16 16 0 -2
BITMAP
1084
1044
11f6
7ca5
54a4
57ff
5404
55e4
5d25
11e5
1126
112d
11e3
1121
0000
0000
ENDCHAR
STARTCHAR ch-96
ENCODING 96
SWIDTH 1000 0
DWIDTH 16 0
BBX 16 16 0 -2
BITMAP
1040
1040
10ff
7daa
54aa
55ff
54aa
54aa
5caa
11ff
1000
1129
1129
1229
0000
0000
ENDCHAR
STARTCHAR ch-97
ENCODING 97
SWIDTH 1000 0
DWIDTH 16 0
BBX 16 16 0 -2
BITMAP
101c
13e0
7d24
54a8
57fe
5470
54a8
5726
5dfc
5524
11fc
1124
11fc
1104
0000
0000
ENDCHAR
STARTCHAR ch-98
ENCODING 98
SWIDTH 1000 0
DWIDTH 16 0
BBX 16 16 0 -2
BITMAP
1020
13fe
7c88
5450
57ff
55fc
5524
55fc
5524
5dfc
1020
11fc
1020
17ff
0000
0000
ENDCHAR
STARTCHAR ch-99
ENCODING 99
SWIDTH 1000 0
DWIDTH 16 0
BBX 16 16 0 -2
BITMAP
0820
4920
2a3f
7f44
49a8
5d10
6b28
4944
4383
1ffc
1084
109c
0080
0080
0000
0000
ENDCHAR
STARTCHAR ch-102
ENCODING 102
SWIDTH 1000 0
DWIDTH 16 0
BBX 16 16 0 -2
BITMAP
3f08
217f
3f22
207f
3f08
317f
5108
1f08
0080
1ffc
1084
109c
0080
0080
0000
0000
ENDCHAR
STARTCHAR ch-103
ENCODING 103
SWIDTH 1000 0
DWIDTH 16 0
BBX 16 16 0 -2
BITMAP
107c
1044
7c7c
5400
55ef
5529
55ef
5400
5c10
11ff
1054
1092
1111
1010
0000
0000
ENDCHAR
STARTCHAR ch-104
ENCODING 104
SWIDTH 1000 0
DWIDTH 16 0
BBX 16 16 0 -2
BITMAP
1040
107c
1088
11ff
7d44
5592
55ff
5500
55fe
5500
11fe
12fe
1082
10fe
0000
0000
ENDCHAR
STARTCHAR ch-105
ENCODING 105
SWIDTH 1000 0
DWIDTH 16 0
BBX 16 16 0 -2
BITMAP
1010
1010
11ff
7c54
55ff
5444
54fe
5482
54fe
5482
10fe
1082
10fe
1101
0000
0000
ENDCHAR
STARTCHAR ch-106
ENCODING 106
SWIDTH 1000 0
DWIDTH 16 0
BBX 16 16 0 -2
BITMAP
1084
13ff
1084
11ff
7d7d
5400
55fe
5442
54a4
5538
1048
109c
112a
1058
0000
0000
ENDCHAR
STARTCHAR ch-107
ENCODING 107
SWIDTH 1000 0
DWIDTH 16 0
BBX 16 16 0 -2
BITMAP
0804
3f3f
7f84
0814
3f04
7f8c
0ff8
0fe8
0ff8
0080
3ffe
2082
208a
0084
0000
0000
ENDCHAR
STARTCHAR ch-108
ENCODING 108
SWIDTH 1000 0
DWIDTH 16 0
BBX 16 16 0 -2
BITMAP
1010
11ff
1010
10fe
7dff
5401
54ff
5410
55ff
55ff
1002
11ff
112a
11e6
0000
0000
ENDCHAR
STARTCHAR ch-109
ENCODING 109
SWIDTH 1000 0
DWIDTH 16 0
BBX 16 16 0 -2
BITMAP
1044
11ff
1044
7dff
5529
55ff
540a
55ff
5d08
110a
11cc
1109
1115
1223
0000
0000
ENDCHAR
STARTCHAR ch-110
ENCODING 110
SWIDTH 1000 0
DWIDTH 16 0
BBX 16 16 0 -2
BITMAP
1010
11ff
1122
7d77
5522
55fa
5502
5df2
119a
11f6
1102
1192
1162
12f6
0000
0000
ENDCHAR
STARTCHAR ch-111
ENCODING 111
SWIDTH 1000 0
DWIDTH 16 0
BBX 16 16 0 -2
BITMAP
1084
10e7
114a
7c00
55ef
5529
55e9
5529
5de9
1109
110a
1148
1168
1388
0000
0000
ENDCHAR
STARTCHAR ch-112
ENCODING 112
SWIDTH 1000 0
DWIDTH 16 0
BBX 16 16 0 -2
BITMAP
1010
11ff
1111
117d
7c10
547c
5410
55fe
54fe
54aa
10fe
1152
1145
127c
0000
0000
ENDCHAR
STARTCHAR ch-114
ENCODING 114
SWIDTH 1000 0
DWIDTH 16 0
BBX 16 16 0 -2
BITMAP
0008
1ffc
0080
0080
0080
0082
7fff
0080
0080
0080
0080
0080
0080
0080
0000
0000
ENDCHAR
STARTCHAR ch-115
ENCODING 115
SWIDTH 1000 0
DWIDTH 16 0
BBX 16 16 0 -2
BITMAP
0004
3ffe
0080
0888
0488
0490
0082
7fff
0080
0080
0080
0080
0080
0080
0000
0000
ENDCHAR
STARTCHAR ch-116
ENCODING 116
SWIDTH 1000 0
DWIDTH 16 0
BBX 16 16 0 -2
BITMAP
0400
0404
07fe
0880
1088
2ffc
0880
0880
0882
7fff
0080
0080
0080
0080
0000
0000
ENDCHAR
STARTCHAR ch-117
ENCODING 117
SWIDTH 1000 0
DWIDTH 16 0
BBX 16 16 0 -2
BITMAP
0004
3ffe
0410
0410
0410
0412
7fff
0410
0410
0410
0410
0810
1010
0010
0000
0000
ENDCHAR
STARTCHAR ch-118
ENCODING 118
SWIDTH 1000 0
DWIDTH 16 0
BBX 16 16 0 -2
BITMAP
0808
0618
0220
1ffe
0210
0210
0212
7fff
0210
0210
0410
0410
0810
1010
0000
0000
ENDCHAR
STARTCHAR ch-120
ENCODING 120
SWIDTH 1000 0
DWIDTH 16 0
BBX 16 16 0 -2
BITMAP
0080
1ffc
0080
0082
7fff
0410
0220
1ffc
0080
0084
3ffe
0080
0080
0080
0000
0000
ENDCHAR
STARTCHAR ch-121
ENCODING 121
SWIDTH 1000 0
DWIDTH 16 0
BBX 16 16 0 -2
BITMAP
0808
7f14
0822
7f41
413e
7f08
4108
7f08
087f
7f08
0808
0808
0808
0808
0000
0000
ENDCHAR
STARTCHAR ch-123
ENCODING 123
SWIDTH 1000 0
DWIDTH 16 0
BBX 16 16 0 -2
BITMAP
0402
08ff
0802
1102
1102
2202
7e02
0402
0802
1202
2102
7fa2
2094
0088
0000
0000
ENDCHAR
STARTCHAR ch-124
ENCODING 124
SWIDTH 1000 0
DWIDTH 16 0
BBX 16 16 0 -2
BITMAP
0020
0820
0820
1022
12ff
2222
7c22
0822
1022
2442
7e42
2282
0114
0208
0000
0000
ENDCHAR
STARTCHAR ch-125
ENCODING 125
SWIDTH 1000 0
DWIDTH 16 0
BBX 16 16 0 -2
BITMAP
0080
0490
4491
48a1
49a3
5efd
4489
4891
52a5
7fff
4183
4081
7fff
4001
0000
0000
ENDCHAR
STARTCHAR ch-126
ENCODING 126
SWIDTH 1000 0
DWIDTH 16 0
BBX 16 16 0 -2
BITMAP
0040
0848
1252
3c7c
0848
1454
3e7e
0044
7fff
0844
0828
1410
2229
0046
0000
0000
ENDCHAR
STARTCHAR ch-128
ENCODING 128
SWIDTH 1000 0
DWIDTH 16 0
BBX 16 16 0 -2
BITMAP
0080
0044
1ffe
1000
1200
1204
1218
1260
1380
1200
1200
1202
2202
41fe
0000
0000
ENDCHAR
STARTCHAR ch-130
ENCODING 130
SWIDTH 1000 0
DWIDTH 16 0
BBX 16 16 0 -2
BITMAP
0080
0040
3fff
2000
2040
2040
2040
2040
2040
2040
20a0
2110
2208
4c06
0000
0000
ENDCHAR
STARTCHAR ch-132
ENCODING 132
SWIDTH 1000 0
DWIDTH 16 0
BBX 16 16 0 -2
BITMAP
0080
0040
0042
1fff
1000
1040
1040
1044
17fe
1040
1040
2040
2042
5fff
0000
0000
ENDCHAR
STARTCHAR ch-135
ENCODING 135
SWIDTH 1000 0
DWIDTH 16 0
BBX 16 16 0 -2
BITMAP
0080
0042
1fff
1000
1220
1220
1222
1226
13a8
1230
1220
12a1
2721
421f
0000
0000
ENDCHAR
STARTCHAR ch-136
ENCODING 136
SWIDTH 1000 0
DWIDTH 16 0
BBX 16 16 0 -2
BITMAP
0040
3fff
2040
20a0
2110
2208
25f4
3803
27fc
2008
2010
4020
0040
0080
0000
0000
ENDCHAR
STARTCHAR ch-137
ENCODING 137
SWIDTH 1000 0
DWIDTH 16 0
BBX 16 16 0 -2
BITMAP
0080
0042
3fff
2000
2040
2ffe
2040
2444
2444
2444
27fc
2040
4042
007e
0000
0000
ENDCHAR
STARTCHAR ch-138
ENCODING 138
SWIDTH 1000 0
DWIDTH 16 0
BBX 16 16 0 -2
BITMAP
0080
0042
1fff
1040
1044
1ffe
10e0
10d0
1148
1244
2447
2842
4040
0040
0000
0000
ENDCHAR
STARTCHAR ch-139
ENCODING 139
SWIDTH 1000 0
DWIDTH 16 0
BBX 16 16 0 -2
BITMAP
0080
0042
1fff
1040
1fff
1040
17fc
1208
1110
10a0
2040
20b0
430f
0c02
0000
0000
ENDCHAR
STARTCHAR ch-140
ENCODING 140
SWIDTH 1000 0
DWIDTH 16 0
BBX 16 16 0 -2
BITMAP
0080
0040
3fff
2000
2ffc
2410
2410
27fe
2050
2090
2110
2210
4c50
0020
0000
0000
ENDCHAR
STARTCHAR ch-141
ENCODING 141
SWIDTH 1000 0
DWIDTH 16 0
BBX 16 16 0 -2
BITMAP
0040
3fff
2000
2004
27f8
2200
2204
23fe
2210
2210
2410
2810
4010
0010
0000
0000
ENDCHAR
STARTCHAR ch-143
ENCODING 143
SWIDTH 1000 0
DWIDTH 16 0
BBX 16 16 0 -2
BITMAP
0040
3ffe
2000
2000
27f8
2010
20a0
2042
2ffe
2044
2048
2040
2140
4080
0000
0000
ENDCHAR
STARTCHAR ch-149
ENCODING 149
SWIDTH 1000 0
DWIDTH 16 0
BBX 16 16 0 -2
BITMAP
0100
0082
1fff
1038
17c0
1440
1444
17fe
1440
1420
2520
2e12
440a
05e6
0000
0000
ENDCHAR
STARTCHAR ch-150
ENCODING 150
SWIDTH 1000 0
DWIDTH 16 0
BBX 16 16 0 -2
BITMAP
0080
0042
1fff
1200
13fe
1404
1be4
1224
1224
13e4
2214
2209
4201
01ff
0000
0000
ENDCHAR
STARTCHAR ch-151
ENCODING 151
SWIDTH 1000 0
DWIDTH 16 0
BBX 16 16 0 -2
BITMAP
0080
0042
1fff
1040
1044
107e
1040
1040
13fc
1204
2204
2204
43fc
0204
0000
0000
ENDCHAR
STARTCHAR ch-154
ENCODING 154
SWIDTH 1000 0
DWIDTH 16 0
BBX 16 16 0 -2
BITMAP
0080
1fff
1040
17fe
1044
1fff
1044
17fc
1044
10a0
20a0
2118
4207
0c02
0000
0000
ENDCHAR
STARTCHAR ch-155
ENCODING 155
SWIDTH 1000 0
DWIDTH 16 0
BBX 16 16 0 -2
BITMAP
0080
0040
1fff
1000
1110
1110
1110
1110
15df
1510
1510
2511
4511
0fdf
0000
0000
ENDCHAR
STARTCHAR ch-156
ENCODING 156
SWIDTH 1000 0
DWIDTH 16 0
BBX 16 16 0 -2
BITMAP
0100
0082
1fff
1100
1108
1208
13ff
1608
1a88
1248
1248
2208
4228
0210
0000
0000
ENDCHAR
STARTCHAR ch-160
ENCODING 160
SWIDTH 1000 0
DWIDTH 16 0
BBX 16 16 0 -2
BITMAP
0080
1fff
1208
1110
1ffe
1040
1048
17fc
1040
1042
1fff
2040
4040
0040
0000
0000
ENDCHAR
STARTCHAR ch-162
ENCODING 162
SWIDTH 1000 0
DWIDTH 16 0
BBX 16 16 0 -2
BITMAP
0040
0020
1fff
1000
17ff
1080
1102
13fe
1022
1020
13fe
2020
4020
07ff
0000
0000
ENDCHAR
STARTCHAR ch-163
ENCODING 163
SWIDTH 1000 0
DWIDTH 16 0
BBX 16 16 0 -2
BITMAP
0080
0040
3fff
2000
2120
2924
2528
2330
2120
2330
2d2c
2221
4421
183f
0000
0000
ENDCHAR
STARTCHAR ch-164
ENCODING 164
SWIDTH 1000 0
DWIDTH 16 0
BBX 16 16 0 -2
BITMAP
0020
1fff
1000
1020
13fe
1020
17ff
1008
17ff
1108
2088
4008
0028
0010
0000
0000
ENDCHAR
STARTCHAR ch-165
ENCODING 165
SWIDTH 1000 0
DWIDTH 16 0
BBX 16 16 0 -2
BITMAP
0080
0042
1fff
1000
1110
1212
17ff
1a30
1238
1254
2293
2312
4210
0210
0000
0000
ENDCHAR
STARTCHAR ch-166
ENCODING 166
SWIDTH 1000 0
DWIDTH 16 0
BBX 16 16 0 -2
BITMAP
0080
0042
1fff
1110
1ffe
1110
11f0
1000
17fc
1208
1130
20c0
4330
1c0f
0000
0000
ENDCHAR
STARTCHAR ch-167
ENCODING 167
SWIDTH 1000 0
DWIDTH 16 0
BBX 16 16 0 -2
BITMAP
0080
0042
3fff
2248
2248
2248
2554
28e2
2048
27fc
2040
2040
4042
1fff
0000
0000
ENDCHAR
STARTCHAR ch-168
ENCODING 168
SWIDTH 1000 0
DWIDTH 16 0
BBX 16 16 0 -2
BITMAP
0040
3fff
2084
27f8
2090
2ffe
2080
21f8
2e10
2020
27fe
2020
40a0
0040
0000
0000
ENDCHAR
STARTCHAR ch-170
ENCODING 170
SWIDTH 1000 0
DWIDTH 16 0
BBX 16 16 0 -2
BITMAP
0080
0040
3fff
2408
2408
2f7f
2408
247f
2522
2614
2c08
2414
4422
0c41
0000
0000
ENDCHAR
STARTCHAR ch-171
ENCODING 171
SWIDTH 1000 0
DWIDTH 16 0
BBX 16 16 0 -2
BITMAP
0040
1fff
1020
17ff
1020
13fe
1222
13fe
1222
13fe
1020
27ff
4020
0020
0000
0000
ENDCHAR
STARTCHAR ch-172
ENCODING 172
SWIDTH 1000 0
DWIDTH 16 0
BBX 16 16 0 -2
BITMAP
0080
0040
3fff
2500
2484
2f88
2434
2508
2510
2524
2508
2530
2902
41fe
0000
0000
ENDCHAR
STARTCHAR ch-173
ENCODING 173
SWIDTH 1000 0
DWIDTH 16 0
BBX 16 16 0 -2
BITMAP
0040
3fff
2000
2f3e
2108
2208
247f
2f08
2108
2108
2908
263e
2580
487f
0000
0000
ENDCHAR
STARTCHAR ch-174
ENCODING 174
SWIDTH 1000 0
DWIDTH 16 0
BBX 16 16 0 -2
BITMAP
0040
3fff
2000
2ffe
20a0
20a0
2ffe
2922
2a3e
2802
2bfa
4802
0ffe
0802
0000
0000
ENDCHAR
STARTCHAR ch-176
ENCODING 176
SWIDTH 1000 0
DWIDTH 16 0
BBX 16 16 0 -2
BITMAP
0020
1fff
1202
1104
1088
13fe
1088
1088
17ff
1088
2108
4208
0408
0008
0000
0000
ENDCHAR
STARTCHAR ch-177
ENCODING 177
SWIDTH 1000 0
DWIDTH 16 0
BBX 16 16 0 -2
BITMAP
0040
1fff
1020
17ff
1020
17ff
1104
1242
14fd
1188
1250
2020
4050
078f
0000
0000
ENDCHAR
STARTCHAR ch-178
ENCODING 178
SWIDTH 1000 0
DWIDTH 16 0
BBX 16 16 0 -2
BITMAP
0040
3fff
2040
2ffe
2248
2248
2554
28e2
20e0
2150
2248
4444
1843
0040
0000
0000
ENDCHAR
STARTCHAR ch-179
ENCODING 179
SWIDTH 1000 0
DWIDTH 16 0
BBX 16 16 0 -2
BITMAP
0080
1fff
1080
17fc
1444
17fc
1444
17fc
10a0
1122
1fff
2020
4020
0020
0000
0000
ENDCHAR
STARTCHAR ch-180
ENCODING 180
SWIDTH 1000 0
DWIDTH 16 0
BBX 16 16 0 -2
BITMAP
0040
3fff
2110
2110
2ffe
2110
2ffe
2000
27fc
2404
27fc
4404
07fc
0404
0000
0000
ENDCHAR
STARTCHAR ch-181
ENCODING 181
SWIDTH 1000 0
DWIDTH 16 0
BBX 16 16 0 -2
BITMAP
0080
1fff
1040
1ffe
10a0
1150
1248
17ff
1a4a
13f8
1248
23f8
4040
003f
0000
0000
ENDCHAR
STARTCHAR ch-182
ENCODING 182
SWIDTH 1000 0
DWIDTH 16 0
BBX 16 16 0 -2
BITMAP
0080
0042
1fff
1110
1112
1fff
1110
1110
11f0
1110
2000
2524
4493
0891
0000
0000
ENDCHAR
STARTCHAR ch-183
ENCODING 183
SWIDTH 1000 0
DWIDTH 16 0
BBX 16 16 0 -2
BITMAP
0080
1fff
1040
17fc
1044
1fff
1044
17fc
1262
1154
2248
2447
4942
0080
0000
0000
ENDCHAR
STARTCHAR ch-184
ENCODING 184
SWIDTH 1000 0
DWIDTH 16 0
BBX 16 16 0 -2
BITMAP
0040
1fff
1040
17fc
1fff
17fc
1040
17fc
1444
17fc
2444
27fc
4444
044c
0000
0000
ENDCHAR
STARTCHAR ch-185
ENCODING 185
SWIDTH 1000 0
DWIDTH 16 0
BBX 16 16 0 -2
BITMAP
0080
1fff
1110
1ffe
1110
11f0
13f8
1208
13f8
1240
2220
2418
4407
0802
0000
0000
ENDCHAR
STARTCHAR ch-190
ENCODING 190
SWIDTH 1000 0
DWIDTH 16 0
BBX 16 16 0 -2
BITMAP
0080
0042
1fff
1140
165c
1444
175c
1444
17fc
1444
20a0
2118
4607
1802
0000
0000
ENDCHAR
STARTCHAR ch-193
ENCODING 193
SWIDTH 1000 0
DWIDTH 16 0
BBX 16 16 0 -2
BITMAP
0080
0040
1fff
1000
17e1
1425
17e5
1425
17e5
1425
2425
47e1
0245
0422
0000
0000
ENDCHAR
STARTCHAR ch-194
ENCODING 194
SWIDTH 1000 0
DWIDTH 16 0
BBX 16 16 0 -2
BITMAP
0040
1fff
1100
113e
1fe2
1122
133e
13a2
1562
153e
1922
2122
413e
0122
0000
0000
ENDCHAR
STARTCHAR ch-196
ENCODING 196
SWIDTH 1000 0
DWIDTH 16 0
BBX 16 16 0 -2
BITMAP
0040
3fff
2000
2f9e
2892
2f92
28a3
2880
2fbe
28a2
2a14
2908
4a94
1c63
0000
0000
ENDCHAR
STARTCHAR ch-197
ENCODING 197
SWIDTH 1000 0
DWIDTH 16 0
BBX 16 16 0 -2
BITMAP
0040
1fff
1020
13fe
1020
17ff
1040
1082
13fe
1000
27fe
4492
0492
0fff
0000
0000
ENDCHAR
STARTCHAR ch-198
ENCODING 198
SWIDTH 1000 0
DWIDTH 16 0
BBX 16 16 0 -2
BITMAP
0040
3fff
2200
2ffc
2444
27fc
2444
27fc
2124
2129
213f
2221
4421
083e
0000
0000
ENDCHAR
STARTCHAR ch-199
ENCODING 199
SWIDTH 1000 0
DWIDTH 16 0
BBX 16 16 0 -2
BITMAP
0040
3fff
2080
2f3e
2812
2892
29a2
2e8e
2000
27fc
2444
27fc
2444
47fc
0000
0000
ENDCHAR
STARTCHAR ch-200
ENCODING 200
SWIDTH 1000 0
DWIDTH 16 0
BBX 16 16 0 -2
BITMAP
0040
1fff
13f8
1100
13fc
13f4
12fc
1204
13fc
1100
23f8
2510
40e0
0f1f
0000
0000
ENDCHAR
STARTCHAR ch-201
ENCODING 201
SWIDTH 1000 0
DWIDTH 16 0
BBX 16 16 0 -2
BITMAP
0080
1ffe
1210
1ffe
1120
17fc
1124
1fff
1124
17fc
2528
2927
5122
0120
0000
0000
ENDCHAR
STARTCHAR ch-202
ENCODING 202
SWIDTH 1000 0
DWIDTH 16 0
BBX 16 16 0 -2
BITMAP
0040
1fff
1200
111f
17c9
144a
17cc
144a
17c9
1509
148d
254a
4e28
0008
0000
0000
ENDCHAR
STARTCHAR ch-203
ENCODING 203
SWIDTH 1000 0
DWIDTH 16 0
BBX 16 16 0 -2
BITMAP
0040
3ffe
1140
165c
1444
175c
1444
175c
1040
13f8
1110
20a0
4040
0fbe
0000
0000
ENDCHAR
STARTCHAR ch-204
ENCODING 204
SWIDTH 1000 0
DWIDTH 16 0
BBX 16 16 0 -2
BITMAP
0040
3fff
2110
2ffe
2112
2ffe
2400
27fe
2400
27fe
2aa2
4aa2
0002
001c
0000
0000
ENDCHAR
STARTCHAR ch-206
ENCODING 206
SWIDTH 1000 0
DWIDTH 16 0
BBX 16 16 0 -2
BITMAP
0040
3fff
2000
20fe
2810
28fe
2e82
28fe
2882
28fe
2a82
4cfe
1844
0082
0000
0000
ENDCHAR
STARTCHAR ch-209
ENCODING 209
SWIDTH 1000 0
DWIDTH 16 0
BBX 16 16 0 -2
BITMAP
0040
3fff
2208
2ffe
23f8
27fc
2444
27fc
2040
2ffe
2040
27fc
2040
5fff
0000
0000
ENDCHAR
STARTCHAR ch-210
ENCODING 210
SWIDTH 1000 0
DWIDTH 16 0
BBX 16 16 0 -2
BITMAP
0080
1fff
1110
17d0
111f
17d4
1124
1fd4
1214
13d4
2248
2554
48a2
1041
0000
0000
ENDCHAR
STARTCHAR ch-211
ENCODING 211
SWIDTH 1000 0
DWIDTH 16 0
BBX 16 16 0 -2
BITMAP
0040
1fff
1100
1fe0
101f
17d1
1452
17d4
1013
1799
2116
2fd0
4110
0310
0000
0000
ENDCHAR
STARTCHAR ch-212
ENCODING 212
SWIDTH 1000 0
DWIDTH 16 0
BBX 16 16 0 -2
BITMAP
0040
1fff
1020
13fe
17ff
1222
13fe
17ff
17ff
10a8
27ff
4050
0020
07df
0000
0000
ENDCHAR
STARTCHAR ch-213
ENCODING 213
SWIDTH 1000 0
DWIDTH 16 0
BBX 16 16 0 -2
BITMAP
0080
3ffe
2f10
2928
2a44
2ca2
2a10
297c
2908
2d7c
2a00
29fe
4844
08fe
0000
0000
ENDCHAR
STARTCHAR ch-214
ENCODING 214
SWIDTH 1000 0
DWIDTH 16 0
BBX 16 16 0 -2
BITMAP
0040
3fff
2fbc
24a4
2294
24e4
21b0
262f
28c2
2320
20c8
2330
41c0
0600
0000
0000
ENDCHAR
STARTCHAR ch-215
ENCODING 215
SWIDTH 1000 0
DWIDTH 16 0
BBX 16 16 0 -2
BITMAP
0040
1fff
1000
128a
17ff
128a
14fb
1000
17ff
1421
13fe
2222
4226
0020
0000
0000
ENDCHAR
STARTCHAR ch-216
ENCODING 216
SWIDTH 1000 0
DWIDTH 16 0
BBX 16 16 0 -2
BITMAP
0040
3fff
2040
2020
27fe
2450
27fe
2452
27fe
2508
254a
258c
2929
41ef
0000
0000
ENDCHAR
STARTCHAR ch-217
ENCODING 217
SWIDTH 1000 0
DWIDTH 16 0
BBX 16 16 0 -2
BITMAP
0040
1fff
1000
13fe
1222
13fe
1222
13fe
1088
13fe
2088
47ff
0104
0202
0000
0000
ENDCHAR
STARTCHAR ch-218
ENCODING 218
SWIDTH 1000 0
DWIDTH 16 0
BBX 16 16 0 -2
BITMAP
0040
3fff
2204
2f84
223e
2f84
2004
2fa4
2894
2f84
2884
2884
2514
4f88
0000
0000
ENDCHAR
STARTCHAR ch-219
ENCODING 219
SWIDTH 1000 0
DWIDTH 16 0
BBX 16 16 0 -2
BITMAP
0040
3fff
27fc
2444
27fc
2444
27fc
2040
27fc
3fff
2444
29f2
2040
5fff
0000
0000
ENDCHAR
STARTCHAR ch-220
ENCODING 220
SWIDTH 1000 0
DWIDTH 16 0
BBX 16 16 0 -2
BITMAP
0040
3fff
2ffe
2802
2ffe
2820
2bfe
2828
2fff
2880
29fe
4afe
1482
00fe
0000
0000
ENDCHAR
STARTCHAR ch-221
ENCODING 221
SWIDTH 1000 0
DWIDTH 16 0
BBX 16 16 0 -2
BITMAP
0040
3fff
2486
2fd8
2490
2790
249f
2794
2494
2494
2fd4
2514
48a4
1044
0000
0000
ENDCHAR
STARTCHAR ch-222
ENCODING 222
SWIDTH 1000 0
DWIDTH 16 0
BBX 16 16 0 -2
BITMAP
0040
3fff
2000
2210
2510
289f
3061
2f81
2208
2f88
2208
4a94
0722
1fc1
0000
0000
ENDCHAR
STARTCHAR ch-223
ENCODING 223
SWIDTH 1000 0
DWIDTH 16 0
BBX 16 16 0 -2
BITMAP
0080
0040
3fff
2200
2f9f
2211
2f91
289f
2f91
289f
2f91
2211
2f93
4221
0000
0000
ENDCHAR
STARTCHAR ch-224
ENCODING 224
SWIDTH 1000 0
DWIDTH 16 0
BBX 16 16 0 -2
BITMAP
0080
0040
3fff
2000
2108
2950
259f
2fe2
282a
2baa
2aaa
2ba4
282a
4861
0000
0000
ENDCHAR
STARTCHAR ch-225
ENCODING 225
SWIDTH 1000 0
DWIDTH 16 0
BBX 16 16 0 -2
BITMAP
0040
3fff
2200
2400
2ffe
24a4
24a4
2ffe
24a4
24a4
2ffe
4000
0912
1111
0000
0000
ENDCHAR
STARTCHAR ch-226
ENCODING 226
SWIDTH 1000 0
DWIDTH 16 0
BBX 16 16 0 -2
BITMAP
0040
3fff
23a2
2095
250a
2204
279c
2095
27a6
243e
2794
2088
4514
0263
0000
0000
ENDCHAR
STARTCHAR ch-227
ENCODING 227
SWIDTH 1000 0
DWIDTH 16 0
BBX 16 16 0 -2
BITMAP
0040
3fff
2110
27fc
2110
2ffe
2040
27fc
2444
27fc
2444
27fc
4208
0404
0000
0000
ENDCHAR
STARTCHAR ch-229
ENCODING 229
SWIDTH 1000 0
DWIDTH 16 0
BBX 16 16 0 -2
BITMAP
0080
3ffe
20e0
2110
22e8
2404
2ffe
3555
27fc
23f8
2208
23f8
4208
03f8
0000
0000
ENDCHAR
STARTCHAR ch-230
ENCODING 230
SWIDTH 1000 0
DWIDTH 16 0
BBX 16 16 0 -2
BITMAP
0040
3fff
2008
2788
24be
2494
2794
247f
2f88
34be
2488
2788
4488
0008
0000
0000
ENDCHAR
STARTCHAR ch-231
ENCODING 231
SWIDTH 1000 0
DWIDTH 16 0
BBX 16 16 0 -2
BITMAP
0040
1fff
1020
17ff
1124
12aa
17ff
1000
13fe
12fa
128a
12fa
2202
43fe
0000
0000
ENDCHAR
STARTCHAR ch-232
ENCODING 232
SWIDTH 1000 0
DWIDTH 16 0
BBX 16 16 0 -2
BITMAP
0080
3fff
2400
27be
2912
2212
2f96
2aa4
2f94
2a9f
2fa4
2abf
2a84
5184
0000
0000
ENDCHAR
STARTCHAR ch-233
ENCODING 233
SWIDTH 1000 0
DWIDTH 16 0
BBX 16 16 0 -2
BITMAP
0080
3fff
2040
3fff
27fc
25f4
2514
25f4
27fc
23f0
2040
3fff
2248
4444
0000
0000
ENDCHAR
STARTCHAR ch-236
ENCODING 236
SWIDTH 1000 0
DWIDTH 16 0
BBX 16 16 0 -2
BITMAP
0040
3fff
20f8
2080
27fe
25fa
2478
25fc
2524
25fc
2524
27fe
2a52
57ff
0000
0000
ENDCHAR
STARTCHAR ch-238
ENCODING 238
SWIDTH 1000 0
DWIDTH 16 0
BBX 16 16 0 -2
BITMAP
0080
3ffe
2000
27bc
27bc
27bc
24a4
27bc
2942
2110
2ffe
40a0
0040
07bc
0000
0000
ENDCHAR
STARTCHAR ch-239
ENCODING 239
SWIDTH 1000 0
DWIDTH 16 0
BBX 16 16 0 -2
BITMAP
0040
3fff
2422
2714
293e
2208
2f88
2abe
2f88
2a88
2fbe
4008
1548
1548
0000
0000
ENDCHAR
STARTCHAR ch-241
ENCODING 241
SWIDTH 1000 0
DWIDTH 16 0
BBX 16 16 0 -2
BITMAP
0040
3fff
2548
2a8a
255f
27ca
244a
27cf
2fea
292a
2fef
480a
082a
0fef
0000
0000
ENDCHAR
STARTCHAR ch-242
ENCODING 242
SWIDTH 1000 0
DWIDTH 16 0
BBX 16 16 0 -2
BITMAP
0080
3ffe
2f3c
2000
2f3c
2d6c
2ffe
2890
2ffe
2892
2ffe
4b9c
0a52
13de
0000
0000
ENDCHAR
STARTCHAR ch-243
ENCODING 243
SWIDTH 1000 0
DWIDTH 16 0
BBX 16 16 0 -2
BITMAP
0040
3fff
3f88
297f
2f08
297f
2f55
297f
3f00
2f7f
25b2
3fa9
4f22
013e
0000
0000
ENDCHAR
STARTCHAR ch-246
ENCODING 246
SWIDTH 1000 0
DWIDTH 16 0
BBX 16 16 0 -2
BITMAP
0004
000e
7cf0
0810
1090
209f
7c90
0490
0490
4490
29ff
1000
2800
47ff
0000
0000
ENDCHAR
STARTCHAR ch-247
ENCODING 247
SWIDTH 1000 0
DWIDTH 16 0
BBX 16 16 0 -2
BITMAP
0008
001c
7de0
0820
1024
23fe
3c20
0420
2420
15fc
0800
1400
23ff
4000
0000
0000
ENDCHAR
STARTCHAR ch-250
ENCODING 250
SWIDTH 1000 0
DWIDTH 16 0
BBX 16 16 0 -2
BITMAP
0010
7cfe
0412
09ff
1012
3cfe
0410
04fe
4410
29ff
1010
2810
4600
01ff
0000
0000
ENDCHAR
STARTCHAR ch-254
ENCODING 254
SWIDTH 1000 0
DWIDTH 16 0
BBX 16 16 0 -2
BITMAP
0410
0410
0410
0410
0410
7fff
0410
0410
0410
0410
0810
1010
2010
4010
0000
0000
ENDCHAR
STARTCHAR ch-255
ENCODING 255
SWIDTH 1000 0
DWIDTH 16 0
BBX 16 16 0 -2
BITMAP
0000
0410
0410
0412
7fff
0410
0410
0410
0410
0410
0410
0410
07f0
0410
0000
0000
ENDCHAR
STARTCHAR ch-257
ENCODING 257
SWIDTH 1000 0
DWIDTH 16 0
BBX 16 16 0 -2
BITMAP
0180
0220
0410
1ff8
0008
0220
0222
7fff
0220
0220
0420
0420
0820
1020
0000
0000
ENDCHAR
STARTCHAR ch-258
ENCODING 258
SWIDTH 1000 0
DWIDTH 16 0
BBX 16 16 0 -2
BITMAP
1ff8
0008
0008
1ff8
1000
1004
1ffc
0410
0410
7fff
0410
0810
1010
2010
0000
0000
ENDCHAR
STARTCHAR ch-260
ENCODING 260
SWIDTH 1000 0
DWIDTH 16 0
BBX 16 16 0 -2
BITMAP
3ffe
0080
0080
1ffc
0080
0084
3ffe
0220
0222
7fff
0220
0420
0820
3020
0000
0000
ENDCHAR
STARTCHAR ch-261
ENCODING 261
SWIDTH 1000 0
DWIDTH 16 0
BBX 16 16 0 -2
BITMAP
0410
0808
7007
0ff8
0108
0208
0c38
0410
0410
7fff
0410
0410
0810
1010
0000
0000
ENDCHAR
STARTCHAR ch-263
ENCODING 263
SWIDTH 1000 0
DWIDTH 16 0
BBX 16 16 0 -2
BITMAP
01c0
0220
0410
0be8
1004
67f3
0410
07f0
0220
7fff
0220
0420
1820
0020
0000
0000
ENDCHAR
STARTCHAR ch-264
ENCODING 264
SWIDTH 1000 0
DWIDTH 16 0
BBX 16 16 0 -2
BITMAP
0100
0084
3ffe
0220
0a28
1226
2462
0800
0222
7fff
0220
0420
0820
1020
0000
0000
ENDCHAR
STARTCHAR ch-266
ENCODING 266
SWIDTH 1000 0
DWIDTH 16 0
BBX 16 16 0 -2
BITMAP
2490
1510
041f
3fa2
24e2
2e94
3588
2494
21a3
0410
7fff
0410
0810
1010
0000
0000
ENDCHAR
STARTCHAR ch-267
ENCODING 267
SWIDTH 1000 0
DWIDTH 16 0
BBX 16 16 0 -2
BITMAP
0100
0120
0110
01ff
7f00
0100
0080
0080
0040
0040
0022
0012
000e
0004
0000
0000
ENDCHAR
STARTCHAR ch-271
ENCODING 271
SWIDTH 1000 0
DWIDTH 16 0
BBX 16 16 0 -2
BITMAP
0040
0050
0048
0042
7fff
0040
1f40
0440
0420
0410
0791
3809
1005
0002
0000
0000
ENDCHAR
STARTCHAR ch-274
ENCODING 274
SWIDTH 1000 0
DWIDTH 16 0
BBX 16 16 0 -2
BITMAP
1114
0a12
05ff
0a10
3110
0410
04e8
7f48
1648
1548
2479
05c5
1405
0802
0000
0000
ENDCHAR
STARTCHAR ch-275
ENCODING 275
SWIDTH 1000 0
DWIDTH 16 0
BBX 16 16 0 -2
BITMAP
0008
3ffc
0008
0008
1ff8
1008
1000
2004
3ffe
0004
0004
0048
0028
0010
0000
0000
ENDCHAR
STARTCHAR ch-276
ENCODING 276
SWIDTH 1000 0
DWIDTH 16 0
BBX 16 16 0 -2
BITMAP
3ffc
0108
0108
3ff8
2108
2102
3ffe
2102
0102
0102
0124
0118
0100
0100
0000
0000
ENDCHAR
STARTCHAR ch-277
ENCODING 277
SWIDTH 1000 0
DWIDTH 16 0
BBX 16 16 0 -2
BITMAP
0084
3fc4
0084
0084
1f84
1004
1004
2084
7fc4
0084
0084
0884
0504
0204
0000
0000
ENDCHAR
STARTCHAR ch-279
ENCODING 279
SWIDTH 1000 0
DWIDTH 16 0
BBX 16 16 0 -2
BITMAP
0220
0224
3ffe
0224
0224
1ffc
1220
1222
1fff
1222
042a
1824
6020
0020
0000
0000
ENDCHAR
STARTCHAR ch-280
ENCODING 280
SWIDTH 1000 0
DWIDTH 16 0
BBX 16 16 0 -2
BITMAP
0210
7f18
0210
2210
3e10
2210
2010
3e20
0240
0248
0284
05fe
2481
1801
0000
0000
ENDCHAR
STARTCHAR ch-282
ENCODING 282
SWIDTH 1000 0
DWIDTH 16 0
BBX 16 16 0 -2
BITMAP
1004
2002
5ffd
0084
0084
1ffc
1080
1080
1fff
0081
0081
0082
008c
0080
0000
0000
ENDCHAR
STARTCHAR ch-283
ENCODING 283
SWIDTH 1000 0
DWIDTH 16 0
BBX 16 16 0 -2
BITMAP
3e10
0490
0490
0492
3c9f
20f2
2392
2092
3c92
049a
0491
0481
287f
1000
0000
0000
ENDCHAR
STARTCHAR ch-285
ENCODING 285
SWIDTH 1000 0
DWIDTH 16 0
BBX 16 16 0 -2
BITMAP
7dff
0511
0511
7d11
4111
41ff
7d01
0500
0500
0500
0500
4501
2901
10ff
0000
0000
ENDCHAR
STARTCHAR ch-287
ENCODING 287
SWIDTH 1000 0
DWIDTH 16 0
BBX 16 16 0 -2
BITMAP
0330
0140
3ffc
0084
1ffc
1080
1082
1fff
0182
0282
0c92
308c
0080
0080
0000
0000
ENDCHAR
STARTCHAR ch-290
ENCODING 290
SWIDTH 1000 0
DWIDTH 16 0
BBX 16 16 0 -2
BITMAP
7c10
0511
0511
7dff
4111
4010
7cfe
0482
0444
0428
0410
0428
0844
7383
0000
0000
ENDCHAR
STARTCHAR ch-291
ENCODING 291
SWIDTH 1000 0
DWIDTH 16 0
BBX 16 16 0 -2
BITMAP
7c42
0442
0482
0502
7cbf
4082
40a2
7c92
048a
0482
0482
0482
288a
1084
0000
0000
ENDCHAR
STARTCHAR ch-292
ENCODING 292
SWIDTH 1000 0
DWIDTH 16 0
BBX 16 16 0 -2
BITMAP
7c01
05fe
0484
7c84
4084
40ff
7c84
0484
0484
0494
04a5
04c5
2883
1139
0000
0000
ENDCHAR
STARTCHAR ch-294
ENCODING 294
SWIDTH 1000 0
DWIDTH 16 0
BBX 16 16 0 -2
BITMAP
7c20
0412
07ff
0420
7c20
4042
4084
7cf8
0410
0420
0444
0482
29ff
1001
0000
0000
ENDCHAR
STARTCHAR ch-295
ENCODING 295
SWIDTH 1000 0
DWIDTH 16 0
BBX 16 16 0 -2
BITMAP
0004
7c0e
05f0
0528
7d28
4528
4124
7d24
0524
0524
0552
094a
5279
2400
0000
0000
ENDCHAR
STARTCHAR ch-296
ENCODING 296
SWIDTH 1000 0
DWIDTH 16 0
BBX 16 16 0 -2
BITMAP
7dff
0421
0421
7c21
4041
4082
411c
7c00
05ff
0501
0501
0501
49ff
3101
0000
0000
ENDCHAR
STARTCHAR ch-297
ENCODING 297
SWIDTH 1000 0
DWIDTH 16 0
BBX 16 16 0 -2
BITMAP
117e
7fa2
1124
0a18
0424
7b43
1ff8
0008
1ff8
1000
1ffc
0004
0028
0010
0000
0000
ENDCHAR
STARTCHAR ch-301
ENCODING 301
SWIDTH 1000 0
DWIDTH 16 0
BBX 16 16 0 -2
BITMAP
7dff
0484
0484
04fc
7c84
4084
40fc
7c84
4484
07ff
0404
0404
2804
1004
0000
0000
ENDCHAR
STARTCHAR ch-302
ENCODING 302
SWIDTH 1000 0
DWIDTH 16 0
BBX 16 16 0 -2
BITMAP
1084
0908
3ffe
0400
7fff
1004
2ffa
4009
1ff8
1000
1ffe
0004
0008
00f0
0000
0000
ENDCHAR
STARTCHAR ch-304
ENCODING 304
SWIDTH 1000 0
DWIDTH 16 0
BBX 16 16 0 -2
BITMAP
7c10
0492
0454
7c10
40fe
4082
7cfe
4482
04fe
0482
0482
0482
288a
1104
0000
0000
ENDCHAR
STARTCHAR ch-305
ENCODING 305
SWIDTH 1000 0
DWIDTH 16 0
BBX 16 16 0 -2
BITMAP
7e7e
0202
7e7e
4040
4042
7e7f
2222
1212
0606
1a1a
6262
2222
0404
1818
0000
0000
ENDCHAR
STARTCHAR ch-307
ENCODING 307
SWIDTH 1000 0
DWIDTH 16 0
BBX 16 16 0 -2
BITMAP
0002
7dff
0400
0449
0492
7d24
4092
4049
7c00
05ff
0410
0410
0810
33ff
0000
0000
ENDCHAR
STARTCHAR ch-309
ENCODING 309
SWIDTH 1000 0
DWIDTH 16 0
BBX 16 16 0 -2
BITMAP
7cfe
0480
04fc
7c80
44fc
4080
7dff
0480
0491
0492
0494
0488
48a4
31c3
0000
0000
ENDCHAR
STARTCHAR ch-310
ENCODING 310
SWIDTH 1000 0
DWIDTH 16 0
BBX 16 16 0 -2
BITMAP
0020
7c10
05ff
0400
7cfe
4082
4082
7cfe
0410
0454
0492
0511
2850
1020
0000
0000
ENDCHAR
STARTCHAR ch-311
ENCODING 311
SWIDTH 1000 0
DWIDTH 16 0
BBX 16 16 0 -2
BITMAP
0402
7eff
0482
04fe
7c10
4410
41ff
7d11
0511
05ff
0410
4412
29ff
1001
0000
0000
ENDCHAR
STARTCHAR ch-312
ENCODING 312
SWIDTH 1000 0
DWIDTH 16 0
BBX 16 16 0 -2
BITMAP
7def
0529
0529
7d29
41ef
4129
4129
7d29
05ef
0529
0529
0529
2a31
1042
0000
0000
ENDCHAR
STARTCHAR ch-316
ENCODING 316
SWIDTH 1000 0
DWIDTH 16 0
BBX 16 16 0 -2
BITMAP
0802
7c1f
0bc2
0902
7bde
4250
4250
7a5f
0bc1
0a41
0a41
0bc1
524a
2004
0000
0000
ENDCHAR
STARTCHAR ch-320
ENCODING 320
SWIDTH 1000 0
DWIDTH 16 0
BBX 16 16 0 -2
BITMAP
0800
7f3c
0824
3e25
7f25
5d47
4100
3e7f
0241
3e22
2014
3e08
0214
0ce3
0000
0000
ENDCHAR
STARTCHAR ch-323
ENCODING 323
SWIDTH 1000 0
DWIDTH 16 0
BBX 16 16 0 -2
BITMAP
7cfe
0492
04fe
0492
7cfe
4054
41ff
7c54
05ff
0410
04fe
0410
2810
1010
0000
0000
ENDCHAR
STARTCHAR ch-324
ENCODING 324
SWIDTH 1000 0
DWIDTH 16 0
BBX 16 16 0 -2
BITMAP
7dff
0500
053e
0522
7d22
413e
4100
7d77
0555
0555
0555
0577
2900
11ff
0000
0000
ENDCHAR
STARTCHAR ch-326
ENCODING 326
SWIDTH 1000 0
DWIDTH 16 0
BBX 16 16 0 -2
BITMAP
4920
2a3f
7f44
49a8
5d10
6b28
4147
1ffc
0004
3ffc
2000
3ffc
0008
01f0
0000
0000
ENDCHAR
STARTCHAR ch-328
ENCODING 328
SWIDTH 1000 0
DWIDTH 16 0
BBX 16 16 0 -2
BITMAP
0000
7cee
04aa
04ee
7c00
20fe
2092
7cfe
0492
04fe
0410
05ff
2810
1010
0000
0000
ENDCHAR
STARTCHAR ch-329
ENCODING 329
SWIDTH 1000 0
DWIDTH 16 0
BBX 16 16 0 -2
BITMAP
7c44
05ff
0444
047c
7c00
41ff
4000
7cfe
0492
04fe
0492
04fe
2844
1082
0000
0000
ENDCHAR
STARTCHAR ch-330
ENCODING 330
SWIDTH 1000 0
DWIDTH 16 0
BBX 16 16 0 -2
BITMAP
0002
3dff
04fe
0492
3cfe
2092
20fe
3dff
04fe
0492
04fe
0492
08fe
31ff
0000
0000
ENDCHAR
STARTCHAR ch-331
ENCODING 331
SWIDTH 1000 0
DWIDTH 16 0
BBX 16 16 0 -2
BITMAP
7dff
0529
05ff
7c00
41ff
4000
40fe
7c82
04fe
0449
04ca
0744
0452
38e1
0000
0000
ENDCHAR
STARTCHAR ch-332
ENCODING 332
SWIDTH 1000 0
DWIDTH 16 0
BBX 16 16 0 -2
BITMAP
7bff
0854
0892
79ff
4111
41bb
7955
09bb
0911
09bb
0955
09bb
4901
3102
0000
0000
ENDCHAR
STARTCHAR ch-334
ENCODING 334
SWIDTH 1000 0
DWIDTH 16 0
BBX 16 16 0 -2
BITMAP
1084
27e9
4bf2
73fc
2409
7fff
5635
77f5
3ffc
3ffc
2000
3fff
0002
00fc
0000
0000
ENDCHAR
STARTCHAR ch-335
ENCODING 335
SWIDTH 1000 0
DWIDTH 16 0
BBX 16 16 0 -2
BITMAP
7def
0529
05ef
05ef
7d29
41ef
4088
7cfe
05bc
049e
04fe
0444
0838
31ef
0000
0000
ENDCHAR
STARTCHAR ch-340
ENCODING 340
SWIDTH 1000 0
DWIDTH 16 0
BBX 16 16 0 -2
BITMAP
0100
03f0
0420
0fc0
0082
7fff
0080
0084
3c88
0490
0888
1084
2282
0100
0000
0000
ENDCHAR
STARTCHAR ch-342
ENCODING 342
SWIDTH 1000 0
DWIDTH 16 0
BBX 16 16 0 -2
BITMAP
03f8
0408
0ff0
0020
7fff
0288
0cd0
3160
0250
0cc8
3147
0642
3940
0080
0000
0000
ENDCHAR
STARTCHAR ch-343
ENCODING 343
SWIDTH 1000 0
DWIDTH 16 0
BBX 16 16 0 -2
BITMAP
0808
7f7f
0808
7f7f
0808
7f7f
0808
0808
1ffc
0004
7fff
0004
1ffc
0004
0000
0000
ENDCHAR
STARTCHAR ch-344
ENCODING 344
SWIDTH 1000 0
DWIDTH 16 0
BBX 16 16 0 -2
BITMAP
03f8
0410
0ff0
0022
7fff
2110
23d2
3c94
2098
27f0
2491
2951
322f
0400
0000
0000
ENDCHAR
STARTCHAR ch-345
ENCODING 345
SWIDTH 1000 0
DWIDTH 16 0
BBX 16 16 0 -2
BITMAP
0100
03f0
0420
03c0
1ffc
7fff
4ff9
0888
0ff8
0ff8
0080
7fff
0888
1084
0000
0000
ENDCHAR
STARTCHAR ch-349
ENCODING 349
SWIDTH 1000 0
DWIDTH 16 0
BBX 16 16 0 -2
BITMAP
0410
07f8
0ff0
7fff
2490
153c
3f92
0e7f
152a
2449
7fff
0408
0808
3008
0000
0000
ENDCHAR
STARTCHAR ch-354
ENCODING 354
SWIDTH 1000 0
DWIDTH 16 0
BBX 16 16 0 -2
BITMAP
3fe4
0884
0888
0890
0882
7fe4
0888
0891
08a1
0882
1084
1088
2090
00a0
0000
0000
ENDCHAR
STARTCHAR ch-356
ENCODING 356
SWIDTH 1000 0
DWIDTH 16 0
BBX 16 16 0 -2
BITMAP
1f86
1108
1110
1920
1542
1506
1108
7fd0
1103
1104
1108
2110
2520
42c0
0000
0000
ENDCHAR
STARTCHAR ch-357
ENCODING 357
SWIDTH 1000 0
DWIDTH 16 0
BBX 16 16 0 -2
BITMAP
0100
1ffc
0410
0222
1fff
1060
1188
1610
1060
1184
2608
2030
41c0
0e00
0000
0000
ENDCHAR
STARTCHAR ch-359
ENCODING 359
SWIDTH 1000 0
DWIDTH 16 0
BBX 16 16 0 -2
BITMAP
0014
0012
7fff
0012
1f14
1119
1172
1114
1f19
1172
0014
7f99
0069
0007
0000
0000
ENDCHAR
STARTCHAR ch-361
ENCODING 361
SWIDTH 1000 0
DWIDTH 16 0
BBX 16 16 0 -2
BITMAP
0702
7886
2488
1510
1021
0403
7f84
0408
0e10
0d81
1483
2404
4408
0430
0000
0000
ENDCHAR
STARTCHAR ch-362
ENCODING 362
SWIDTH 1000 0
DWIDTH 16 0
BBX 16 16 0 -2
BITMAP
0200
03c2
0206
1fe8
1250
1382
1e06
13c8
1012
1486
1489
2491
4881
107f
0000
0000
ENDCHAR
STARTCHAR ch-363
ENCODING 363
SWIDTH 1000 0
DWIDTH 16 0
BBX 16 16 0 -2
BITMAP
4041
7fe3
4444
5f48
4451
5f43
4044
5f48
5150
5141
5f43
5144
4048
4190
0000
0000
ENDCHAR
STARTCHAR ch-364
ENCODING 364
SWIDTH 1000 0
DWIDTH 16 0
BBX 16 16 0 -2
BITMAP
0841
0841
0842
7ff4
0848
18c1
1ce1
2952
2944
4a49
0841
0842
0844
0848
0000
0000
ENDCHAR
STARTCHAR ch-365
ENCODING 365
SWIDTH 1000 0
DWIDTH 16 0
BBX 16 16 0 -2
BITMAP
0402
0486
7fc8
0410
3fa0
0006
3f88
2090
3fa1
1102
0a04
0788
7810
2060
0000
0000
ENDCHAR
STARTCHAR ch-367
ENCODING 367
SWIDTH 1000 0
DWIDTH 16 0
BBX 16 16 0 -2
BITMAP
7fc1
0a02
7fc4
4a48
4a41
7fc2
0004
3f88
0000
7fc1
1502
2484
4448
0c10
0000
0000
ENDCHAR
STARTCHAR ch-368
ENCODING 368
SWIDTH 1000 0
DWIDTH 16 0
BBX 16 16 0 -2
BITMAP
0202
3fe2
0884
0508
7ff0
1fc2
1044
1fc8
1051
1fc1
0202
7fe4
0208
0210
0000
0000
ENDCHAR
STARTCHAR ch-369
ENCODING 369
SWIDTH 1000 0
DWIDTH 16 0
BBX 16 16 0 -2
BITMAP
1fc2
1044
1fc8
1050
1fc2
0202
7ff4
1fc9
1051
1fc2
0a84
1248
2a50
0420
0000
0000
ENDCHAR
STARTCHAR ch-371
ENCODING 371
SWIDTH 1000 0
DWIDTH 16 0
BBX 16 16 0 -2
BITMAP
0040
0080
0100
0210
0420
1840
0080
0180
0280
0480
3880
0080
0080
0080
0000
0000
ENDCHAR
STARTCHAR ch-372
ENCODING 372
SWIDTH 1000 0
DWIDTH 16 0
BBX 16 16 0 -2
BITMAP
0840
1040
207f
4081
0501
0801
1041
3021
5011
1001
1001
1001
1002
100c
0000
0000
ENDCHAR
STARTCHAR ch-374
ENCODING 374
SWIDTH 1000 0
DWIDTH 16 0
BBX 16 16 0 -2
BITMAP
0800
13fe
2104
4908
1110
313e
5102
1142
1122
1114
1208
1414
1022
10c1
0000
0000
ENDCHAR
STARTCHAR ch-375
ENCODING 375
SWIDTH 1000 0
DWIDTH 16 0
BBX 16 16 0 -2
BITMAP
0420
0822
13ff
2040
0444
087e
1044
2844
4844
0884
0904
0a04
0c28
0810
0000
0000
ENDCHAR
STARTCHAR ch-376
ENCODING 376
SWIDTH 1000 0
DWIDTH 16 0
BBX 16 16 0 -2
BITMAP
0800
0830
1048
2484
4902
1201
3020
5020
1020
1044
1082
13ff
1001
1000
0000
0000
ENDCHAR
STARTCHAR ch-377
ENCODING 377
SWIDTH 1000 0
DWIDTH 16 0
BBX 16 16 0 -2
BITMAP
04fc
0888
1088
2088
0507
0a00
19fc
2884
4888
0850
0820
0858
0987
0e02
0000
0000
ENDCHAR
STARTCHAR ch-380
ENCODING 380
SWIDTH 1000 0
DWIDTH 16 0
BBX 16 16 0 -2
BITMAP
0410
0412
09ff
1511
2512
4910
117e
3142
5144
1124
1128
1210
1228
14c7
0000
0000
ENDCHAR
STARTCHAR ch-381
ENCODING 381
SWIDTH 1000 0
DWIDTH 16 0
BBX 16 16 0 -2
BITMAP
1001
17fe
2208
4208
0a08
13ff
3208
5208
1208
1208
1249
1285
1303
1679
0000
0000
ENDCHAR
STARTCHAR ch-382
ENCODING 382
SWIDTH 1000 0
DWIDTH 16 0
BBX 16 16 0 -2
BITMAP
1020
1050
2088
4104
0a02
14f9
3000
53fe
1004
1008
1090
1060
1020
1020
0000
0000
ENDCHAR
STARTCHAR ch-383
ENCODING 383
SWIDTH 1000 0
DWIDTH 16 0
BBX 16 16 0 -2
BITMAP
0848
0848
13ff
2049
4449
0bff
1249
3248
53ff
1049
1049
108a
1108
1208
0000
0000
ENDCHAR
STARTCHAR ch-384
ENCODING 384
SWIDTH 1000 0
DWIDTH 16 0
BBX 16 16 0 -2
BITMAP
0440
0420
0804
13fe
2020
0420
0824
1bfe
2820
4820
0820
0822
0fff
0800
0000
0000
ENDCHAR
STARTCHAR ch-385
ENCODING 385
SWIDTH 1000 0
DWIDTH 16 0
BBX 16 16 0 -2
BITMAP
0404
05fe
0820
1020
2420
4424
093e
1920
2920
4920
0920
0922
0fff
0800
0000
0000
ENDCHAR
STARTCHAR ch-386
ENCODING 386
SWIDTH 1000 0
DWIDTH 16 0
BBX 16 16 0 -2
BITMAP
0404
08fe
1084
2484
0484
08fc
1884
2884
4884
08fc
0884
0884
0884
0fff
0000
0000
ENDCHAR
STARTCHAR ch-389
ENCODING 389
SWIDTH 1000 0
DWIDTH 16 0
BBX 16 16 0 -2
BITMAP
0420
0424
09fe
1020
2420
0bff
1808
2808
4bff
0888
0848
0808
0828
0810
0000
0000
ENDCHAR
STARTCHAR ch-390
ENCODING 390
SWIDTH 1000 0
DWIDTH 16 0
BBX 16 16 0 -2
BITMAP
17ff
1050
2050
4050
0fff
1451
3451
5451
1491
171f
1401
1401
17ff
1401
0000
0000
ENDCHAR
STARTCHAR ch-391
ENCODING 391
SWIDTH 1000 0
DWIDTH 16 0
BBX 16 16 0 -2
BITMAP
0440
0842
107f
2482
0502
08f2
1892
2892
48f2
0892
0892
08f2
0814
0808
0000
0000
ENDCHAR
STARTCHAR ch-392
ENCODING 392
SWIDTH 1000 0
DWIDTH 16 0
BBX 16 16 0 -2
BITMAP
0404
05fe
0904
11fc
2504
4504
09fc
1942
2946
4928
0918
0944
0987
0902
0000
0000
ENDCHAR
STARTCHAR ch-393
ENCODING 393
SWIDTH 1000 0
DWIDTH 16 0
BBX 16 16 0 -2
BITMAP
0488
0850
1020
25fe
0420
0820
1bfe
2820
4820
0fff
0820
0820
0820
0820
0000
0000
ENDCHAR
STARTCHAR ch-394
ENCODING 394
SWIDTH 1000 0
DWIDTH 16 0
BBX 16 16 0 -2
BITMAP
0400
0402
09ff
1102
257a
454a
094a
194a
294a
497a
0902
0902
09fe
0902
0000
0000
ENDCHAR
STARTCHAR ch-395
ENCODING 395
SWIDTH 1000 0
DWIDTH 16 0
BBX 16 16 0 -2
BITMAP
0420
09fc
0824
13ff
2424
45fc
0820
1824
2bfe
4820
0822
0fff
0820
0820
0000
0000
ENDCHAR
STARTCHAR ch-396
ENCODING 396
SWIDTH 1000 0
DWIDTH 16 0
BBX 16 16 0 -2
BITMAP
0410
0822
1044
22f8
0410
0822
19ff
2841
487c
0884
0948
0830
0828
09c7
0000
0000
ENDCHAR
STARTCHAR ch-400
ENCODING 400
SWIDTH 1000 0
DWIDTH 16 0
BBX 16 16 0 -2
BITMAP
0820
0850
1088
2507
4602
09fc
1020
2820
4bfe
08a8
0926
0a22
08a0
0840
0000
0000
ENDCHAR
STARTCHAR ch-401
ENCODING 401
SWIDTH 1000 0
DWIDTH 16 0
BBX 16 16 0 -2
BITMAP
13ff
1000
2111
4222
0c44
1222
3111
5004
13fe
1020
1020
1020
1022
17ff
0000
0000
ENDCHAR
STARTCHAR ch-402
ENCODING 402
SWIDTH 1000 0
DWIDTH 16 0
BBX 16 16 0 -2
BITMAP
0420
0824
11fe
2420
0422
0bff
1820
2924
493e
0920
0920
0aa0
0c60
083f
0000
0000
ENDCHAR
STARTCHAR ch-406
ENCODING 406
SWIDTH 1000 0
DWIDTH 16 0
BBX 16 16 0 -2
BITMAP
0820
1010
25ff
4501
0901
107c
3000
51ff
1010
1054
1092
1111
1010
1010
0000
0000
ENDCHAR
STARTCHAR ch-407
ENCODING 407
SWIDTH 1000 0
DWIDTH 16 0
BBX 16 16 0 -2
BITMAP
05fc
0904
09fc
1104
25fc
4400
0bfe
1808
2fff
4908
0888
0808
0828
0810
0000
0000
ENDCHAR
STARTCHAR ch-408
ENCODING 408
SWIDTH 1000 0
DWIDTH 16 0
BBX 16 16 0 -2
BITMAP
0448
0848
13cf
2048
4448
0448
0bcf
1848
2848
4848
0bcf
0848
0888
0908
0000
0000
ENDCHAR
STARTCHAR ch-409
ENCODING 409
SWIDTH 1000 0
DWIDTH 16 0
BBX 16 16 0 -2
BITMAP
0820
0924
113e
2520
4520
0bff
1820
2920
4924
093e
0920
09a0
0a70
0c0f
0000
0000
ENDCHAR
STARTCHAR ch-411
ENCODING 411
SWIDTH 1000 0
DWIDTH 16 0
BBX 16 16 0 -2
BITMAP
1020
17ff
2020
4850
098c
17ff
3004
53e4
1224
13e4
1224
1004
1014
1008
0000
0000
ENDCHAR
STARTCHAR ch-412
ENCODING 412
SWIDTH 1000 0
DWIDTH 16 0
BBX 16 16 0 -2
BITMAP
0412
0893
1052
2454
0410
09ff
1901
2901
497d
0945
097d
0901
0905
0902
0000
0000
ENDCHAR
STARTCHAR ch-414
ENCODING 414
SWIDTH 1000 0
DWIDTH 16 0
BBX 16 16 0 -2
BITMAP
1084
1084
214a
4a31
0800
1020
3120
5120
113e
1120
1120
11a0
1260
143f
0000
0000
ENDCHAR
STARTCHAR ch-415
ENCODING 415
SWIDTH 1000 0
DWIDTH 16 0
BBX 16 16 0 -2
BITMAP
1002
13ff
2222
4a22
0afa
1222
33fe
5202
12fa
128a
12fa
128a
1202
1404
0000
0000
ENDCHAR
STARTCHAR ch-416
ENCODING 416
SWIDTH 1000 0
DWIDTH 16 0
BBX 16 16 0 -2
BITMAP
1020
17ff
2020
4924
0924
12aa
3471
5020
1070
10a8
1124
1222
1421
1020
0000
0000
ENDCHAR
STARTCHAR ch-417
ENCODING 417
SWIDTH 1000 0
DWIDTH 16 0
BBX 16 16 0 -2
BITMAP
0a02
13df
2512
4112
0912
17f2
3112
5512
15d2
151a
15f4
1f10
1410
1010
0000
0000
ENDCHAR
STARTCHAR ch-421
ENCODING 421
SWIDTH 1000 0
DWIDTH 16 0
BBX 16 16 0 -2
BITMAP
09fc
1104
21fc
4504
09fc
1000
37ff
5020
1120
1120
113c
11a0
1260
143f
0000
0000
ENDCHAR
STARTCHAR ch-422
ENCODING 422
SWIDTH 1000 0
DWIDTH 16 0
BBX 16 16 0 -2
BITMAP
0800
13df
2241
4241
0bdf
1200
321f
53c1
1211
1211
13ca
1204
120a
1211
0000
0000
ENDCHAR
STARTCHAR ch-424
ENCODING 424
SWIDTH 1000 0
DWIDTH 16 0
BBX 16 16 0 -2
BITMAP
0420
0444
09fe
1104
25fc
0504
09fc
1800
2bfe
4820
09fe
0820
0fff
0800
0000
0000
ENDCHAR
STARTCHAR ch-425
ENCODING 425
SWIDTH 1000 0
DWIDTH 16 0
BBX 16 16 0 -2
BITMAP
0880
11fe
2200
49fc
0904
11fc
3104
51fc
1100
13fe
1488
1088
1070
178f
0000
0000
ENDCHAR
STARTCHAR ch-426
ENCODING 426
SWIDTH 1000 0
DWIDTH 16 0
BBX 16 16 0 -2
BITMAP
080e
0bf0
1212
2bff
4a10
12fe
3282
52fe
1282
12fe
1482
1482
18fe
1082
0000
0000
ENDCHAR
STARTCHAR ch-427
ENCODING 427
SWIDTH 1000 0
DWIDTH 16 0
BBX 16 16 0 -2
BITMAP
0810
10fe
2012
45ff
0800
10fe
3082
50fe
1010
10ff
1090
11ff
1010
1010
0000
0000
ENDCHAR
STARTCHAR ch-428
ENCODING 428
SWIDTH 1000 0
DWIDTH 16 0
BBX 16 16 0 -2
BITMAP
0820
1020
23fe
4088
0850
17ff
2441
5421
13fe
1040
10fc
1104
1204
1018
0000
0000
ENDCHAR
STARTCHAR ch-429
ENCODING 429
SWIDTH 1000 0
DWIDTH 16 0
BBX 16 16 0 -2
BITMAP
043e
0bc0
1124
24a4
04a8
0900
19fe
2a20
4820
0fff
0a22
0a22
0bfe
0a02
0000
0000
ENDCHAR
STARTCHAR ch-430
ENCODING 430
SWIDTH 1000 0
DWIDTH 16 0
BBX 16 16 0 -2
BITMAP
0908
1108
2550
455f
0fe2
1012
3fd4
5014
1794
14a8
14d4
1494
1823
1042
0000
0000
ENDCHAR
STARTCHAR ch-431
ENCODING 431
SWIDTH 1000 0
DWIDTH 16 0
BBX 16 16 0 -2
BITMAP
13fe
2124
4222
0840
1088
31fc
5020
1041
13ff
1020
17ff
1050
1088
1307
0000
0000
ENDCHAR
STARTCHAR ch-434
ENCODING 434
SWIDTH 1000 0
DWIDTH 16 0
BBX 16 16 0 -2
BITMAP
0800
09fe
1102
25fe
4510
09d6
1110
31d6
5150
117e
1150
12ff
1010
1010
0000
0000
ENDCHAR
STARTCHAR ch-437
ENCODING 437
SWIDTH 1000 0
DWIDTH 16 0
BBX 16 16 0 -2
BITMAP
0908
1548
2550
47df
0822
17d2
3012
57d4
1114
17c8
1108
11d4
1722
1043
0000
0000
ENDCHAR
STARTCHAR ch-438
ENCODING 438
SWIDTH 1000 0
DWIDTH 16 0
BBX 16 16 0 -2
BITMAP
1100
1544
2544
4548
110f
1fe2
292a
692a
2baa
2d6a
292a
2924
292a
2961
0000
0000
ENDCHAR
STARTCHAR ch-439
ENCODING 439
SWIDTH 1000 0
DWIDTH 16 0
BBX 16 16 0 -2
BITMAP
0820
17ff
1020
23fe
4a52
0a52
13fe
3000
57ff
1140
1532
1515
1905
10fc
0000
0000
ENDCHAR
STARTCHAR ch-441
ENCODING 441
SWIDTH 1000 0
DWIDTH 16 0
BBX 16 16 0 -2
BITMAP
1108
17d0
213f
4242
17c2
1002
37c2
5452
17d2
1452
17d2
144a
1444
144b
0000
0000
ENDCHAR
STARTCHAR ch-443
ENCODING 443
SWIDTH 1000 0
DWIDTH 16 0
BBX 16 16 0 -2
BITMAP
0870
0888
1174
2a02
4dfd
11ac
3174
51fc
1000
10f8
1088
10f8
1088
10f8
0000
0000
ENDCHAR
STARTCHAR ch-444
ENCODING 444
SWIDTH 1000 0
DWIDTH 16 0
BBX 16 16 0 -2
BITMAP
0a08
17c8
2450
47df
0c62
17d2
3112
5fd4
1214
13c8
1248
1454
15a2
1843
0000
0000
ENDCHAR
STARTCHAR ch-445
ENCODING 445
SWIDTH 1000 0
DWIDTH 16 0
BBX 16 16 0 -2
BITMAP
0908
1548
1548
27df
4822
0fc2
1252
3792
5112
1294
17cc
1554
1923
1142
0000
0000
ENDCHAR
STARTCHAR ch-446
ENCODING 446
SWIDTH 1000 0
DWIDTH 16 0
BBX 16 16 0 -2
BITMAP
1080
14a8
27e8
510f
17ea
3012
53ca
100a
13ca
100a
13ca
1244
124a
13d1
0000
0000
ENDCHAR
STARTCHAR ch-447
ENCODING 447
SWIDTH 1000 0
DWIDTH 16 0
BBX 16 16 0 -2
BITMAP
0888
13ee
2148
47ee
0802
13ee
3228
53ee
1228
122e
13e8
122e
1229
126f
0000
0000
ENDCHAR
STARTCHAR ch-448
ENCODING 448
SWIDTH 1000 0
DWIDTH 16 0
BBX 16 16 0 -2
BITMAP
0810
11ff
21ef
4529
09ef
1044
31ff
5044
11ff
1044
11ff
118a
1084
10cb
0000
0000
ENDCHAR
STARTCHAR ch-449
ENCODING 449
SWIDTH 1000 0
DWIDTH 16 0
BBX 16 16 0 -2
BITMAP
087e
107a
2042
447e
0892
10fe
3111
51ff
1010
11ff
1092
1155
1038
1054
0000
0000
ENDCHAR
STARTCHAR ch-451
ENCODING 451
SWIDTH 1000 0
DWIDTH 16 0
BBX 16 16 0 -2
BITMAP
0080
0040
0060
0440
0400
1404
1402
1401
2401
4401
0408
0408
03f8
0000
0000
0000
ENDCHAR
STARTCHAR ch-453
ENCODING 453
SWIDTH 1000 0
DWIDTH 16 0
BBX 16 16 0 -2
BITMAP
0100
0090
0098
0410
2424
2423
2441
4480
0504
0604
0c04
1404
23fc
0000
0000
0000
ENDCHAR
STARTCHAR ch-457
ENCODING 457
SWIDTH 1000 0
DWIDTH 16 0
BBX 16 16 0 -2
BITMAP
0800
0802
0bff
0822
2c22
2a22
2822
4822
0822
0842
0842
0882
0914
0a08
0000
0000
ENDCHAR
STARTCHAR ch-460
ENCODING 460
SWIDTH 1000 0
DWIDTH 16 0
BBX 16 16 0 -2
BITMAP
0008
3ffc
0008
1ff8
1008
1002
1002
0ffe
0000
2902
28c1
2849
4809
07f8
0000
0000
ENDCHAR
STARTCHAR ch-461
ENCODING 461
SWIDTH 1000 0
DWIDTH 16 0
BBX 16 16 0 -2
BITMAP
0008
3ffc
0108
0908
0d08
0208
0228
0410
0900
04c4
2452
2411
2411
43f0
0000
0000
ENDCHAR
STARTCHAR ch-463
ENCODING 463
SWIDTH 1000 0
DWIDTH 16 0
BBX 16 16 0 -2
BITMAP
0804
080e
09f0
2c20
2a20
2822
4bff
0820
0820
0820
0820
0820
0820
0820
0000
0000
ENDCHAR
STARTCHAR ch-464
ENCODING 464
SWIDTH 1000 0
DWIDTH 16 0
BBX 16 16 0 -2
BITMAP
0080
0088
00fc
0080
0080
0082
3fff
0000
0000
14c4
1442
2409
4409
03f8
0000
0000
ENDCHAR
STARTCHAR ch-465
ENCODING 465
SWIDTH 1000 0
DWIDTH 16 0
BBX 16 16 0 -2
BITMAP
0002
3fff
00c0
00b0
0098
0088
0080
0080
0000
14c4
1442
2409
4409
03f8
0000
0000
ENDCHAR
STARTCHAR ch-466
ENCODING 466
SWIDTH 1000 0
DWIDTH 16 0
BBX 16 16 0 -2
BITMAP
0040
0050
0048
007f
7fc0
0420
0220
0a10
2a90
2848
4949
0905
0705
0002
0000
0000
ENDCHAR
STARTCHAR ch-468
ENCODING 468
SWIDTH 1000 0
DWIDTH 16 0
BBX 16 16 0 -2
BITMAP
1080
1082
10ff
5900
5400
51fc
5008
5010
1020
1040
1081
1101
1201
11ff
0000
0000
ENDCHAR
STARTCHAR ch-469
ENCODING 469
SWIDTH 1000 0
DWIDTH 16 0
BBX 16 16 0 -2
BITMAP
1020
1020
1020
5822
57ff
5020
5020
1020
1020
1050
1088
1104
1202
1401
0000
0000
ENDCHAR
STARTCHAR ch-470
ENCODING 470
SWIDTH 1000 0
DWIDTH 16 0
BBX 16 16 0 -2
BITMAP
0808
0808
080a
2dff
2a08
2808
4888
0848
0848
0808
0808
0808
0828
0810
0000
0000
ENDCHAR
STARTCHAR ch-471
ENCODING 471
SWIDTH 1000 0
DWIDTH 16 0
BBX 16 16 0 -2
BITMAP
0080
0082
7fff
0080
0080
0080
3ffe
0000
0100
28c0
2842
2809
4809
07f8
0000
0000
ENDCHAR
STARTCHAR ch-472
ENCODING 472
SWIDTH 1000 0
DWIDTH 16 0
BBX 16 16 0 -2
BITMAP
0100
0082
7fff
0800
0800
0808
0ffc
0100
0880
2842
2841
4809
0808
07f8
0000
0000
ENDCHAR
STARTCHAR ch-473
ENCODING 473
SWIDTH 1000 0
DWIDTH 16 0
BBX 16 16 0 -2
BITMAP
0840
0830
0810
0802
2fff
2d00
2900
4900
0900
0900
0900
0902
08ff
0800
0000
0000
ENDCHAR
STARTCHAR ch-477
ENCODING 477
SWIDTH 1000 0
DWIDTH 16 0
BBX 16 16 0 -2
BITMAP
1ffc
0100
0102
7fff
0220
0410
0908
1107
6592
0548
0924
1124
0500
0200
0000
0000
ENDCHAR
STARTCHAR ch-478
ENCODING 478
SWIDTH 1000 0
DWIDTH 16 0
BBX 16 16 0 -2
BITMAP
0080
3ffe
0220
0140
0080
0140
3e3e
0000
0100
28c6
2801
4808
0808
07f8
0000
0000
ENDCHAR
STARTCHAR ch-480
ENCODING 480
SWIDTH 1000 0
DWIDTH 16 0
BBX 16 16 0 -2
BITMAP
0080
0084
1ffe
1084
1084
1ffc
1084
0080
0000
0900
2882
2889
4809
07f8
0000
0000
ENDCHAR
STARTCHAR ch-481
ENCODING 481
SWIDTH 1000 0
DWIDTH 16 0
BBX 16 16 0 -2
BITMAP
1020
1020
1022
5bff
5622
5222
5222
1222
13fe
1222
1020
1020
1020
1020
0000
0000
ENDCHAR
STARTCHAR ch-483
ENCODING 483
SWIDTH 1000 0
DWIDTH 16 0
BBX 16 16 0 -2
BITMAP
1000
13fe
1104
5908
5510
513f
5101
1142
1124
1118
1218
1424
1042
1181
0000
0000
ENDCHAR
STARTCHAR ch-484
ENCODING 484
SWIDTH 1000 0
DWIDTH 16 0
BBX 16 16 0 -2
BITMAP
0880
0884
2cfe
2a90
2890
4910
0812
0bff
0810
0810
0810
0810
0810
0810
0000
0000
ENDCHAR
STARTCHAR ch-485
ENCODING 485
SWIDTH 1000 0
DWIDTH 16 0
BBX 16 16 0 -2
BITMAP
0800
1ffe
2000
47f8
0000
7ffc
0004
0204
2a44
2924
2815
4845
07c3
0001
0000
0000
ENDCHAR
STARTCHAR ch-488
ENCODING 488
SWIDTH 1000 0
DWIDTH 16 0
BBX 16 16 0 -2
BITMAP
1000
1004
13fe
1800
5400
5002
57ff
1090
1090
1090
1090
1111
1211
141f
0000
0000
ENDCHAR
STARTCHAR ch-490
ENCODING 490
SWIDTH 1000 0
DWIDTH 16 0
BBX 16 16 0 -2
BITMAP
0810
0850
0848
2c88
2a84
2907
4a22
0820
0840
0888
0904
0bfe
0802
0800
0000
0000
ENDCHAR
STARTCHAR ch-491
ENCODING 491
SWIDTH 1000 0
DWIDTH 16 0
BBX 16 16 0 -2
BITMAP
0840
0840
0844
2dfe
2a44
2844
4844
0fff
0840
0890
0888
0904
0a06
0c02
0000
0000
ENDCHAR
STARTCHAR ch-493
ENCODING 493
SWIDTH 1000 0
DWIDTH 16 0
BBX 16 16 0 -2
BITMAP
0840
0820
0802
0bff
2c20
2a20
2830
4828
0826
0822
0820
0820
0820
0820
0000
0000
ENDCHAR
STARTCHAR ch-494
ENCODING 494
SWIDTH 1000 0
DWIDTH 16 0
BBX 16 16 0 -2
BITMAP
0820
0822
0bff
2c20
2a20
49fc
0904
0908
0888
0850
0820
0858
0987
0e02
0000
0000
ENDCHAR
STARTCHAR ch-495
ENCODING 495
SWIDTH 1000 0
DWIDTH 16 0
BBX 16 16 0 -2
BITMAP
1000
13fe
1208
5a08
5608
5208
53ff
1208
1208
1208
1249
1285
1303
1601
0000
0000
ENDCHAR
STARTCHAR ch-497
ENCODING 497
SWIDTH 1000 0
DWIDTH 16 0
BBX 16 16 0 -2
BITMAP
0820
0820
0820
29fe
2d22
2a24
4820
0820
0850
0890
0891
0911
0a0f
0c00
0000
0000
ENDCHAR
STARTCHAR ch-499
ENCODING 499
SWIDTH 1000 0
DWIDTH 16 0
BBX 16 16 0 -2
BITMAP
1020
1022
17ff
1020
1a22
5622
5222
5222
13fe
1020
1020
1020
1021
103f
0000
0000
ENDCHAR
STARTCHAR ch-500
ENCODING 500
SWIDTH 1000 0
DWIDTH 16 0
BBX 16 16 0 -2
BITMAP
1020
1050
1088
1904
5202
54f9
5000
1000
13fe
1002
1004
1008
1010
1020
0000
0000
ENDCHAR
STARTCHAR ch-501
ENCODING 501
SWIDTH 1000 0
DWIDTH 16 0
BBX 16 16 0 -2
BITMAP
0080
0140
0220
0418
19e7
6002
0ff8
0008
0010
0120
2482
2409
4409
03f8
0000
0000
ENDCHAR
STARTCHAR ch-503
ENCODING 503
SWIDTH 1000 0
DWIDTH 16 0
BBX 16 16 0 -2
BITMAP
1000
1000
1202
5202
5a02
568a
5252
1222
1252
128a
1202
1202
13fe
1202
0000
0000
ENDCHAR
STARTCHAR ch-504
ENCODING 504
SWIDTH 1000 0
DWIDTH 16 0
BBX 16 16 0 -2
BITMAP
0800
0804
09fe
2c44
2a44
2844
49ff
0844
0844
0844
0844
0844
0bff
0800
0000
0000
ENDCHAR
STARTCHAR ch-506
ENCODING 506
SWIDTH 1000 0
DWIDTH 16 0
BBX 16 16 0 -2
BITMAP
1100
1100
11ff
5a21
5421
5022
5020
1020
1020
1050
1088
1104
1202
1401
0000
0000
ENDCHAR
STARTCHAR ch-507
ENCODING 507
SWIDTH 1000 0
DWIDTH 16 0
BBX 16 16 0 -2
BITMAP
080e
08f0
0880
2c80
2a82
28ff
4888
0888
0888
0908
0908
0a08
0c08
0808
0000
0000
ENDCHAR
STARTCHAR ch-509
ENCODING 509
SWIDTH 1000 0
DWIDTH 16 0
BBX 16 16 0 -2
BITMAP
0404
07fe
0924
1124
2244
0244
0494
0908
0000
0100
28c2
2849
4809
07f8
0000
0000
ENDCHAR
STARTCHAR ch-511
ENCODING 511
SWIDTH 1000 0
DWIDTH 16 0
BBX 16 16 0 -2
BITMAP
0040
0220
0410
0ff8
1217
6212
0490
1860
0000
0480
2442
2449
4409
03f8
0000
0000
ENDCHAR
ENDFONT
